<?xml version="1.0" encoding="utf-8"?>
<svg xmlns="http://www.w3.org/2000/svg">

<!-- arrow svg -->
<symbol id="arrow" viewBox="0 0 26.077 26.077">
  <g>
    <g id="c103_arrow">
      <path fill="currentColor" d="M25.709,13.552l-9.721,9.994c0,0-1.151,1.219-1.151-0.105c0-1.325,0-4.532,0-4.532
          s-0.781,0-1.976,0c-3.42,0-9.642,0-12.173,0c0,0-0.688,0.184-0.688-0.861c0.001-1.047,0.001-9.533,0.001-10.279
          S0.576,7.04,0.576,7.04c2.463,0,8.895,0,12.199,0c1.072,0,1.771,0,1.771,0s0-2.569,0-4.186c0-1.61,1.208-0.395,1.208-0.395
          s9.081,8.791,10.033,9.744C26.482,12.894,25.709,13.552,25.709,13.552z"/>
    </g>
  </g>
</symbol>


<!-- burger svg -->
<symbol id="burger" viewBox="0 0 41 25">
  <path id="burger-menu" d="M2 2H25.3333M2 12.6667H39.3333M16 23.3333H39.3333" stroke="currentColor" stroke-width="2.66667" stroke-linecap="round" stroke-linejoin="round"/>
</symbol>


<!-- check svg -->
<symbol id="check" viewBox="0 0 17.837 17.837">
  <g>
    <path fill="currentColor" d="M16.145,2.571c-0.272-0.273-0.718-0.273-0.99,0L6.92,10.804l-4.241-4.27c-0.272-0.274-0.715-0.274-0.989,0L0.204,8.019c-0.272,0.271-0.272,0.717,0,0.99l6.217,6.258c0.272,0.271,0.715,0.271,0.99,0L17.63,5.047c0.276-0.273,0.276-0.72,0-0.994L16.145,2.571z"/>
  </g>
</symbol>


<!-- cross svg -->
<symbol id="cross" viewBox="0 0 80 80">
  <path d="M20 20 L60 60 M60 20 L20 60" stroke="currentColor" stroke-width="8" stroke-linecap="round"/>
</symbol>


<!-- delete svg -->
<symbol id="delete" viewBox="0 0 80 80">
  <path d="M27.6084 0C26.4024 0 25.4288 0.879375 25.4288 1.96875C25.4288 3.05813 26.4024 3.9375 27.6084 3.9375H49.4045C50.6106 3.9375 51.5841 3.05813 51.5841 1.96875C51.5841 0.879375 50.6106 0 49.4045 0H27.6084ZM9.44498 9.1875C4.23571 9.1875 0 13.0134 0 17.7188C0 22.4241 4.23571 26.25 9.44498 26.25H65.3883V67.5938C65.3883 73.7428 59.8449 78.75 53.0372 78.75H23.9757C17.1681 78.75 11.6246 73.7428 11.6246 67.5938V33.4688C11.6246 32.3794 10.651 31.5 9.44498 31.5C8.23893 31.5 7.26537 32.3794 7.26537 33.4688V67.5938C7.26537 75.915 14.7632 82.6875 23.9757 82.6875H53.0372C62.2497 82.6875 69.7476 75.915 69.7476 67.5938V26.0142C73.9034 25.1217 77.0129 21.7481 77.0129 17.7188C77.0129 13.0134 72.7772 9.1875 67.568 9.1875H9.44498ZM9.44498 13.125H67.568C70.3724 13.125 72.6537 15.1856 72.6537 17.7188C72.6537 20.2519 70.3724 22.3125 67.568 22.3125H9.44498C6.64055 22.3125 4.35922 20.2519 4.35922 17.7188C4.35922 15.1856 6.64055 13.125 9.44498 13.125ZM28.3349 35.4375C27.1289 35.4375 26.1553 36.3169 26.1553 37.4062V67.5938C26.1553 68.6831 27.1289 69.5625 28.3349 69.5625C29.541 69.5625 30.5146 68.6831 30.5146 67.5938V37.4062C30.5146 36.3169 29.541 35.4375 28.3349 35.4375ZM48.678 35.4375C47.4719 35.4375 46.4984 36.3169 46.4984 37.4062V67.5938C46.4984 68.6831 47.4719 69.5625 48.678 69.5625C49.884 69.5625 50.8576 68.6831 50.8576 67.5938V37.4062C50.8576 36.3169 49.884 35.4375 48.678 35.4375Z" fill="currentColor"/>
</symbol>


<!-- letter svg -->
<symbol id="letter" viewBox="0 0 32 32">
  <g id="message_letter_mail_emoji_happy_e-mail">
    <g id="XMLID_2054_">
      <line fill="none" stroke="currentColor" stroke-linecap="round" stroke-linejoin="round" stroke-miterlimit="10" x1="26.5" x2="26.5" y1="15.8" y2="7.5"/>
      <polyline fill="none" points="20.5,1.5 5.5,1.5 5.5,15.8" stroke="currentColor" stroke-linecap="round" stroke-linejoin="round" stroke-miterlimit="10"/>
      <polyline fill="none" points="20.5,1.5 26.479,7.5 20.5,7.5 20.5,4" stroke="currentColor" stroke-linecap="round" stroke-linejoin="round" stroke-miterlimit="10"/>
      <polyline fill="none" points="21,20.111 29.5,13.5 29.5,30.5 2.5,30.5 2.5,13.5 11.054,20.153" stroke="currentColor" stroke-linecap="round" stroke-linejoin="round" stroke-miterlimit="10"/>
      <polyline fill="none" points="2.5,29 16,19.5 29.5,29" stroke="currentColor" stroke-linecap="round" stroke-linejoin="round" stroke-miterlimit="10"/>
      <line fill="none" stroke="currentColor" stroke-linecap="round" stroke-linejoin="round" stroke-miterlimit="10" x1="26.495" x2="29.5" y1="11.052" y2="13.5"/>
      <line fill="none" stroke="currentColor" stroke-linecap="round" stroke-linejoin="round" stroke-miterlimit="10" x1="2.5" x2="5.5" y1="13.5" y2="11.056"/>
      <g id="XMLID_2088_">
        <g id="XMLID_2909_">
          <path d="M15,13.521h2c0,0.55-0.45,1-1,1S15,14.07,15,13.521z" fill="none" stroke="currentColor" stroke-linecap="round" stroke-linejoin="round" stroke-miterlimit="10"/>
          <path d="M20.5,12c0.27,0,0.5,0.23,0.5,0.5S20.77,13,20.5,13S20,12.77,20,12.5S20.23,12,20.5,12z" fill="none" stroke="currentColor" stroke-linecap="round" stroke-linejoin="round" stroke-miterlimit="10"/>
          <path d="M11.5,12c0.27,0,0.5,0.23,0.5,0.5S11.77,13,11.5,13S11,12.77,11,12.5S11.23,12,11.5,12z" fill="none" stroke="currentColor" stroke-linecap="round" stroke-linejoin="round" stroke-miterlimit="10"/>
        </g>
        <g id="XMLID_2886_">
          <path d="M15,13.521h2c0,0.55-0.45,1-1,1S15,14.07,15,13.521z" fill="none" stroke="currentColor" stroke-linecap="round" stroke-linejoin="round" stroke-miterlimit="10"/>
          <path d="M20.5,12c0.27,0,0.5,0.23,0.5,0.5S20.77,13,20.5,13S20,12.77,20,12.5S20.23,12,20.5,12z" fill="none" stroke="currentColor" stroke-linecap="round" stroke-linejoin="round" stroke-miterlimit="10"/>
          <path d="M11.5,12c0.27,0,0.5,0.23,0.5,0.5S11.77,13,11.5,13S11,12.77,11,12.5S11.23,12,11.5,12z" fill="none" stroke="currentColor" stroke-linecap="round" stroke-linejoin="round" stroke-miterlimit="10"/>
        </g>
      </g>
    </g>
  </g>
</symbol>


<!-- minus svg -->
<symbol id="minus" viewBox="0 0 459.313 459.314">
  <path d="M459.313,229.648c0,22.201-17.992,40.199-40.205,40.199H40.181c-11.094,0-21.14-4.498-28.416-11.774C4.495,250.808,0,240.76,0,229.66c-0.006-22.204,17.992-40.199,40.202-40.193h378.936C441.333,189.472,459.308,207.456,459.313,229.648z"/>
</symbol>


<!-- no found svg -->
<symbol id="nofound" viewBox="0 0 32 32">
  <g id="page_document_emoji_No_results_empty_page">
    <g id="XMLID_1521_">
      <path d="M21.5,14.75c0.41,0,0.75,0.34,0.75,0.75s-0.34,0.75-0.75,0.75s-0.75-0.34-0.75-0.75 S21.09,14.75,21.5,14.75z" fill="currentColor" id="XMLID_1887_"/>
      <path d="M10.5,14.75c0.41,0,0.75,0.34,0.75,0.75s-0.34,0.75-0.75,0.75s-0.75-0.34-0.75-0.75 S10.09,14.75,10.5,14.75z" fill="currentColor" id="XMLID_1885_"/>
    </g>
    <g id="XMLID_1337_">
      <g id="XMLID_4010_">
        <polyline fill="none" id="XMLID_4073_" points="21.5,1.5 4.5,1.5 4.5,30.5 27.5,30.5 27.5,7.5" stroke="currentColor" stroke-linecap="round" stroke-linejoin="round" stroke-miterlimit="10"/>
        <polyline fill="none" id="XMLID_4072_" points="21.5,1.5 27.479,7.5 21.5,7.5 21.5,4" stroke="currentColor" stroke-linecap="round" stroke-linejoin="round" stroke-miterlimit="10"/>
        <path d="M14.5,18.5c0-0.83,0.67-1.5,1.5-1.5s1.5,0.67,1.5,1.5" fill="none" id="XMLID_4071_" stroke="currentColor" stroke-linecap="round" stroke-linejoin="round" stroke-miterlimit="10"/>
        <g id="XMLID_4068_">
          <path d="M20.75,15.5c0,0.41,0.34,0.75,0.75,0.75s0.75-0.34,0.75-0.75s-0.34-0.75-0.75-0.75S20.75,15.09,20.75,15.5z" fill="none" id="XMLID_4070_" stroke="currentColor" stroke-linecap="round" stroke-linejoin="round" stroke-miterlimit="10"/>
          <path d="M11.25,15.5c0,0.41-0.34,0.75-0.75,0.75s-0.75-0.34-0.75-0.75s0.34-0.75,0.75-0.75S11.25,15.09,11.25,15.5z" fill="none" id="XMLID_4069_" stroke="currentColor" stroke-linecap="round" stroke-linejoin="round" stroke-miterlimit="10"/>
        </g>
      </g>
      <g id="XMLID_2974_">
        <polyline fill="none" id="XMLID_4009_" points="21.5,1.5 4.5,1.5 4.5,30.5 27.5,30.5 27.5,7.5" stroke="currentColor" stroke-linecap="round" stroke-linejoin="round" stroke-miterlimit="10"/>
        <polyline fill="none" id="XMLID_4008_" points="21.5,1.5 27.479,7.5 21.5,7.5 21.5,4" stroke="currentColor" stroke-linecap="round" stroke-linejoin="round" stroke-miterlimit="10"/>
        <path d="M14.5,18.5c0-0.83,0.67-1.5,1.5-1.5s1.5,0.67,1.5,1.5" fill="none" id="XMLID_4007_" stroke="currentColor" stroke-linecap="round" stroke-linejoin="round" stroke-miterlimit="10"/>
        <g id="XMLID_4004_">
          <path d="M20.75,15.5c0,0.41,0.34,0.75,0.75,0.75s0.75-0.34,0.75-0.75s-0.34-0.75-0.75-0.75S20.75,15.09,20.75,15.5z" fill="none" id="XMLID_4006_" stroke="currentColor" stroke-linecap="round" stroke-linejoin="round" stroke-miterlimit="10"/>
          <path d="M11.25,15.5c0,0.41-0.34,0.75-0.75,0.75s-0.75-0.34-0.75-0.75s0.34-0.75,0.75-0.75S11.25,15.09,11.25,15.5z" fill="none" id="XMLID_4005_" stroke="currentColor" stroke-linecap="round" stroke-linejoin="round" stroke-miterlimit="10"/>
        </g>
      </g>
    </g>
  </g>
</symbol>


<!-- pause svg -->
<symbol id="pause" viewBox="0 0 277.338 277.338">
  <g>
    <path fill="currentColor" d="M14.22,45.665v186.013c0,25.223,16.711,45.66,37.327,45.66c20.618,0,37.339-20.438,37.339-45.66V45.665
            c0-25.211-16.721-45.657-37.339-45.657C30.931,0,14.22,20.454,14.22,45.665z"/>
    <path fill="currentColor" d="M225.78,0c-20.614,0-37.325,20.446-37.325,45.657V231.67c0,25.223,16.711,45.652,37.325,45.652s37.338-20.43,37.338-45.652
            V45.665C263.109,20.454,246.394,0,225.78,0z"/>
  </g>
</symbol>


<!-- play svg -->
<symbol id="play" viewBox="0 0 17.804 17.804">
  <g>
    <g id="c98_play">
      <path fill="currentColor" d="M2.067,0.043C2.21-0.028,2.372-0.008,2.493,0.085l13.312,8.503c0.094,0.078,0.154,0.191,0.154,0.313
          c0,0.12-0.061,0.237-0.154,0.314L2.492,17.717c-0.07,0.057-0.162,0.087-0.25,0.087l-0.176-0.04
          c-0.136-0.065-0.222-0.207-0.222-0.361V0.402C1.844,0.25,1.93,0.107,2.067,0.043z"/>
    </g>
    <g id="Capa_1_78_"/>
  </g>
</symbol>


<!-- plus svg -->
<symbol id="plus" viewBox="0 0 45.402 45.402">
  <path fill="currentColor" d="M41.267,18.557H26.832V4.134C26.832,1.851,24.99,0,22.707,0c-2.283,0-4.124,1.851-4.124,4.135v14.432H4.141c-2.283,0-4.139,1.851-4.138,4.135c-0.001,1.141,0.46,2.187,1.207,2.934c0.748,0.749,1.78,1.222,2.92,1.222h14.453V41.27c0,1.142,0.453,2.176,1.201,2.922c0.748,0.748,1.777,1.211,2.919,1.211c2.282,0,4.129-1.851,4.129-4.133V26.857h14.435c2.283,0,4.134-1.867,4.133-4.15C45.399,20.425,43.548,18.557,41.267,18.557z"/>
</symbol>


<!-- redact svg -->
<symbol id="redact" viewBox="0 0 80 80">
  <path d="M42.4618 19.0801C43.9202 17.4173 43.6275 14.9891 41.8078 13.6564C39.9887 12.3238 37.3321 12.5914 35.8744 14.2541L42.4618 19.0801ZM5.97174 54.5252L9.16885 57.0444C9.20183 57.0094 9.23408 56.9739 9.26566 56.9379L5.97174 54.5252ZM5.00929 56.6755L0.796198 56.424L0.792483 56.497L5.00929 56.6755ZM4.22131 72.2271L0.00450673 72.0486C-0.00517413 72.24 0.0007357 72.4319 0.0222925 72.6227L4.22131 72.2271ZM8.65087 75.7614L8.78888 79.6176C9.07041 79.6089 9.35025 79.5749 9.62436 79.5153L8.65087 75.7614ZM25.5361 72.1037L26.5098 75.8581L26.5751 75.8432L25.5361 72.1037ZM27.703 70.8484L30.9596 73.3039L30.9962 73.2622L27.703 70.8484ZM64.9918 34.5143C66.4501 32.8517 66.158 30.4235 64.3395 29.0904C62.5209 27.7572 59.8638 28.0242 58.4054 29.6868L64.9918 34.5143ZM35.8918 14.2531C34.4335 15.9154 34.725 18.3438 36.5441 19.677C38.3627 21.0102 41.0193 20.7434 42.4782 19.0811L35.8918 14.2531ZM48.1229 6.4811L51.4161 8.89513C51.4712 8.8319 51.5247 8.76708 51.5759 8.70077L48.1229 6.4811ZM57.2916 4.83489L59.9921 1.86943C59.8576 1.76716 59.7163 1.67266 59.5694 1.58638L57.2916 4.83489ZM69.8823 14.4138L72.8699 11.6881C72.7781 11.6042 72.6825 11.5242 72.5828 11.4484L69.8823 14.4138ZM69.8317 22.8404L66.8768 20.0848C66.7574 20.192 66.6449 20.3056 66.5396 20.425L69.8317 22.8404ZM58.4054 29.6868C56.946 31.3485 57.2381 33.7751 59.0561 35.109C60.8741 36.443 63.5324 36.176 64.9918 34.5143L58.4054 29.6868ZM43.3596 16.0953C43.014 13.988 40.8651 12.5356 38.5597 12.8514C36.2537 13.1672 34.6648 15.1315 35.0104 17.2389L43.3596 16.0953ZM62.2671 35.9234C64.577 35.6369 66.1952 33.6923 65.8817 31.581C65.5676 29.4694 63.4406 27.9903 61.1301 28.2772L62.2671 35.9234ZM35.8744 14.2541L2.67783 52.1119L9.26566 56.9379L42.4618 19.0801L35.8744 14.2541ZM2.77464 52.0054C1.60753 53.2426 0.912537 54.7937 0.796198 56.424L9.22164 56.9266C9.21855 56.9698 9.20003 57.0115 9.16885 57.0444L2.77464 52.0054ZM0.792483 56.497L0.00450673 72.0486L8.43811 72.4057L9.22609 56.854L0.792483 56.497ZM0.0222925 72.6227C0.481965 76.6966 4.31069 79.7514 8.78888 79.6176L8.51286 71.9051C8.49485 71.9056 8.48601 71.903 8.48027 71.901C8.47222 71.8984 8.46158 71.8933 8.45072 71.8845C8.4398 71.8758 8.43277 71.867 8.42877 71.8603C8.4259 71.8552 8.42218 71.8475 8.42033 71.831L0.0222925 72.6227ZM9.62436 79.5153L26.5098 75.8581L24.5624 68.3493L7.67738 72.007L9.62436 79.5153ZM26.5751 75.8432C28.2946 75.444 29.8306 74.555 30.9596 73.3039L24.4464 68.393C24.4599 68.3786 24.4774 68.3683 24.4971 68.3637L26.5751 75.8432ZM30.9962 73.2622L64.9918 34.5143L58.4054 29.6868L24.4098 68.4347L30.9962 73.2622ZM42.4782 19.0811L51.4161 8.89513L44.8297 4.06713L35.8918 14.2531L42.4782 19.0811ZM51.5759 8.70077C52.356 7.6867 53.8717 7.41451 55.0138 8.08344L59.5694 1.58638C54.6203 -1.3123 48.0514 -0.132885 44.6699 4.26149L51.5759 8.70077ZM54.5911 7.80034L67.1818 17.3793L72.5828 11.4484L59.9921 1.86943L54.5911 7.80034ZM66.8948 17.1396C67.322 17.531 67.5606 18.0625 67.5572 18.6156L75.9998 18.658C76.0156 16.0461 74.8888 13.5367 72.8699 11.6881L66.8948 17.1396ZM67.5572 18.6156C67.5544 19.1687 67.309 19.6977 66.8768 20.0848L72.7866 25.596C74.8274 23.7677 75.9841 21.2699 75.9998 18.658L67.5572 18.6156ZM66.5396 20.425L58.4054 29.6868L64.9918 34.5143L73.1237 25.2558L66.5396 20.425ZM35.0104 17.2389C36.9764 29.2321 49.1197 37.5562 62.2671 35.9234L61.1301 28.2772C52.5586 29.3417 44.6417 23.9145 43.3596 16.0953L35.0104 17.2389Z" fill="currentColor"/>
</symbol>


<!-- star-circle svg -->
<symbol id="star-circle" viewBox="0 0 580.956 580.956">
  <g>
    <path fill="currentColor" d="M577.7,237.958c-23.256-153-145.655-223.992-291.618-223.686c-3.366,0-5.508,1.53-7.038,3.672
        C200.708-8.984,117.17,61.701,67.904,114.945c-63.954,69.156-82.008,175.95-57.222,264.69
        C55.971,541.51,281.187,608.524,424.089,545.487C537.921,495.61,595.755,356.686,577.7,237.958z M312.398,282.633
        c-7.344,17.137-14.076,34.578-20.502,52.326c-29.07,0.611-58.446,0.611-87.516-0.611c-0.612-3.672-1.224-7.346-1.836-11.018
        c-6.732-39.473-12.852-78.947-17.442-118.727c38.25-25.704,77.418-49.572,117.198-73.134c22.031,14.076,43.758,29.07,64.872,44.982
        C349.118,212.56,327.087,247.75,312.398,282.633z M380.637,186.549c53.244,40.698,104.04,85.68,153.918,128.52
        c-73.44,9.486-148.104,16.83-223.38,19.279c8.874-23.562,18.359-46.819,28.764-69.463
        C352.179,238.875,366.866,212.865,380.637,186.549z M226.718,537.532c-0.306-61.506-8.874-122.094-18.666-182.682
        c25.398,1.223,50.796,1.836,76.194,1.529C263.132,416.049,245.079,477.555,226.718,537.532z M188.468,333.735
        c-49.572-2.447-99.144-7.65-147.798-16.217c40.392-38.25,84.15-71.911,129.438-103.123
        C175.004,254.481,181.736,294.261,188.468,333.735z M182.654,182.265c-2.142-20.502-2.448-41.004-3.06-61.812
        c-0.612-34.272-8.874-55.998,30.294-38.862c26.01,11.628,51.102,24.786,75.582,39.474c-34.578,20.502-69.156,41.616-102.51,63.648
        C182.654,184.102,182.654,183.184,182.654,182.265z M318.519,121.983c27.234-15.912,54.774-31.824,82.008-47.736
        c-2.448,29.988-12.546,58.446-25.704,86.598C356.463,147.075,337.797,134.223,318.519,121.983z M51.687,165.436
        C89.325,96.585,195.201,8.458,278.738,28.042c1.224,2.448,3.672,4.284,7.344,4.284c42.534,0,82.926,6.12,119.34,18.666l0,0
        c-34.578,20.196-69.156,40.086-103.734,60.282c-40.086-24.48-82.008-45.288-125.154-60.894c-5.508-1.836-10.098,3.06-10.404,7.956
        c-3.978,45.9-2.448,91.188,2.142,136.17c-53.244,36.108-104.346,74.97-151.164,120.259C14.966,262.743,27.818,209.5,51.687,165.436
        z M72.495,454.606c-31.824-33.66-48.96-76.807-53.856-122.4c0,0,0.306,0,0.306,0.307c55.08,11.016,113.526,18.359,172.89,21.725
        c10.404,61.506,20.808,122.707,23.868,185.131C160.316,522.844,109.214,493.161,72.495,454.606z M465.704,499.282
        c-60.588,52.02-144.126,63.342-222.768,46.818c19.278-62.73,37.944-127.297,60.282-190.027
        c82.926-2.141,165.546-12.545,241.434-32.129c2.143,1.836,4.284,3.672,6.12,5.201c2.754,2.449,5.814,2.449,8.262,1.531
        C548.324,395.547,515.582,456.442,465.704,499.282z M561.482,316.905c-54.468-48.959-111.996-100.062-173.196-146.268
        c17.137-35.496,30.601-72.522,29.988-111.996c0-1.224-0.306-2.142-0.612-3.06c66.708,26.928,117.504,78.642,138.312,161.874
        C563.931,249.891,565.767,283.551,561.482,316.905z"/>
  </g>
</symbol>


<!-- note svg -->
<symbol id="note" viewBox="0 0 600 600" xmlns="http://www.w3.org/2000/svg">
  <g style="display:inline">
    <path
      d="m301.429 312.422 372.684-76v103.929l-372.684 76z"
      fill="currentColor"
      fill-opacity="1"
      fill-rule="nonzero"
      stroke="none"
      transform="matrix(1.08717 0 0 1.08717 -155.773 -257.032)"
    />
    <path
      d="M301.429 312.342h60v388.5h-60z"
      fill="currentColor"
      fill-opacity="1"
      fill-rule="nonzero"
      stroke="none"
      transform="matrix(1.08717 0 0 1.08717 -155.773 -257.032)"
    />
    <path
      d="M-40 470.362c0 43.078-55.964 78-125 78s-125-34.922-125-78 55.964-78 125-78 125 34.922 125 78"
      fill="currentColor"
      fill-opacity="1"
      fill-rule="nonzero"
      stroke="none"
      transform="matrix(.8401 -.2251 .27056 1.00974 141.385 4.257)"
    />
    <path
      d="M614.113 248.877h60v388.5h-60z"
      fill="currentColor"
      fill-opacity="1"
      fill-rule="nonzero"
      stroke="none"
      style="display:inline"
      transform="matrix(1.08717 0 0 1.08717 -155.773 -257.032)"
    />
    <path
      d="M-40 470.362c0 43.078-55.964 78-125 78s-125-34.922-125-78 55.964-78 125-78 125 34.922 125 78"
      fill="currentColor"
      fill-opacity="1"
      fill-rule="nonzero"
      stroke="none"
      style="display:inline"
      transform="matrix(.8401 -.2251 .27056 1.00974 481.327 -64.74)"
    />
  </g>
</symbol>


</svg>