<?xml version="1.0" encoding="utf-8"?>
<svg xmlns="http://www.w3.org/2000/svg">

<!-- upload svg -->
<symbol id="upload" viewBox="0 0 40 40">
  <path d="M17.5 30V9.625L11 16.125L7.5 12.5L20 0L32.5 12.5L29 16.125L22.5 9.625V30H17.5ZM5 40C3.625 40 2.44792 39.5104 1.46875 38.5313C0.489583 37.5521 0 36.375 0 35V27.5H5V35H35V27.5H40V35C40 36.375 39.5104 37.5521 38.5313 38.5313C37.5521 39.5104 36.375 40 35 40H5Z" fill="currentColor"/>
</symbol>


<!-- burger svg -->
<symbol id="burger" viewBox="0 0 18 12">
  <path d="M0 12V10H18V12H0ZM0 7V5H18V7H0ZM0 2V0H18V2H0Z" fill="currentColor"/>
</symbol>


<!-- check svg -->
<symbol id="check" viewBox="0 0 41 31">
  <path d="M14.25 30.0625L0 15.8125L3.5625 12.25L14.25 22.9375L37.1875 0L40.75 3.5625L14.25 30.0625Z" fill="currentColor"/>
</symbol>


<!-- cross svg -->
<symbol id="cross" viewBox="0 0 80 80">
  <path d="M20 20 L60 60 M60 20 L20 60" stroke="currentColor" stroke-width="8" stroke-linecap="round"/>
</symbol>


<!-- delete svg -->
<symbol id="delete" viewBox="0 0 36 40">
  <path d="M6.75 40C5.5125 40 4.45312 39.5648 3.57187 38.6944C2.69062 37.8241 2.25 36.7778 2.25 35.5556V6.66667H0V2.22222H11.25V0H24.75V2.22222H36V6.66667H33.75V35.5556C33.75 36.7778 33.3094 37.8241 32.4281 38.6944C31.5469 39.5648 30.4875 40 29.25 40H6.75ZM29.25 6.66667H6.75V35.5556H29.25V6.66667ZM11.25 31.1111H15.75V11.1111H11.25V31.1111ZM20.25 31.1111H24.75V11.1111H20.25V31.1111Z" fill="currentColor"/>
</symbol>


<!-- letter svg -->
<symbol id="letter" viewBox="0 0 32 32">
  <g id="message_letter_mail_emoji_happy_e-mail">
    <g id="XMLID_2054_">
      <line fill="none" stroke="currentColor" stroke-linecap="round" stroke-linejoin="round" stroke-miterlimit="10" x1="26.5" x2="26.5" y1="15.8" y2="7.5"/>
      <polyline fill="none" points="20.5,1.5 5.5,1.5 5.5,15.8" stroke="currentColor" stroke-linecap="round" stroke-linejoin="round" stroke-miterlimit="10"/>
      <polyline fill="none" points="20.5,1.5 26.479,7.5 20.5,7.5 20.5,4" stroke="currentColor" stroke-linecap="round" stroke-linejoin="round" stroke-miterlimit="10"/>
      <polyline fill="none" points="21,20.111 29.5,13.5 29.5,30.5 2.5,30.5 2.5,13.5 11.054,20.153" stroke="currentColor" stroke-linecap="round" stroke-linejoin="round" stroke-miterlimit="10"/>
      <polyline fill="none" points="2.5,29 16,19.5 29.5,29" stroke="currentColor" stroke-linecap="round" stroke-linejoin="round" stroke-miterlimit="10"/>
      <line fill="none" stroke="currentColor" stroke-linecap="round" stroke-linejoin="round" stroke-miterlimit="10" x1="26.495" x2="29.5" y1="11.052" y2="13.5"/>
      <line fill="none" stroke="currentColor" stroke-linecap="round" stroke-linejoin="round" stroke-miterlimit="10" x1="2.5" x2="5.5" y1="13.5" y2="11.056"/>
      <g id="XMLID_2088_">
        <g id="XMLID_2909_">
          <path d="M15,13.521h2c0,0.55-0.45,1-1,1S15,14.07,15,13.521z" fill="none" stroke="currentColor" stroke-linecap="round" stroke-linejoin="round" stroke-miterlimit="10"/>
          <path d="M20.5,12c0.27,0,0.5,0.23,0.5,0.5S20.77,13,20.5,13S20,12.77,20,12.5S20.23,12,20.5,12z" fill="none" stroke="currentColor" stroke-linecap="round" stroke-linejoin="round" stroke-miterlimit="10"/>
          <path d="M11.5,12c0.27,0,0.5,0.23,0.5,0.5S11.77,13,11.5,13S11,12.77,11,12.5S11.23,12,11.5,12z" fill="none" stroke="currentColor" stroke-linecap="round" stroke-linejoin="round" stroke-miterlimit="10"/>
        </g>
        <g id="XMLID_2886_">
          <path d="M15,13.521h2c0,0.55-0.45,1-1,1S15,14.07,15,13.521z" fill="none" stroke="currentColor" stroke-linecap="round" stroke-linejoin="round" stroke-miterlimit="10"/>
          <path d="M20.5,12c0.27,0,0.5,0.23,0.5,0.5S20.77,13,20.5,13S20,12.77,20,12.5S20.23,12,20.5,12z" fill="none" stroke="currentColor" stroke-linecap="round" stroke-linejoin="round" stroke-miterlimit="10"/>
          <path d="M11.5,12c0.27,0,0.5,0.23,0.5,0.5S11.77,13,11.5,13S11,12.77,11,12.5S11.23,12,11.5,12z" fill="none" stroke="currentColor" stroke-linecap="round" stroke-linejoin="round" stroke-miterlimit="10"/>
        </g>
      </g>
    </g>
  </g>
</symbol>


<!-- minus svg -->
<symbol id="minus" viewBox="0 0 459.313 459.314">
  <path d="M459.313,229.648c0,22.201-17.992,40.199-40.205,40.199H40.181c-11.094,0-21.14-4.498-28.416-11.774C4.495,250.808,0,240.76,0,229.66c-0.006-22.204,17.992-40.199,40.202-40.193h378.936C441.333,189.472,459.308,207.456,459.313,229.648z"/>
</symbol>


<!-- no found svg -->
<symbol id="nofound" viewBox="0 0 32 32">
  <g id="page_document_emoji_No_results_empty_page">
    <g id="XMLID_1521_">
      <path d="M21.5,14.75c0.41,0,0.75,0.34,0.75,0.75s-0.34,0.75-0.75,0.75s-0.75-0.34-0.75-0.75 S21.09,14.75,21.5,14.75z" fill="currentColor" id="XMLID_1887_"/>
      <path d="M10.5,14.75c0.41,0,0.75,0.34,0.75,0.75s-0.34,0.75-0.75,0.75s-0.75-0.34-0.75-0.75 S10.09,14.75,10.5,14.75z" fill="currentColor" id="XMLID_1885_"/>
    </g>
    <g id="XMLID_1337_">
      <g id="XMLID_4010_">
        <polyline fill="none" id="XMLID_4073_" points="21.5,1.5 4.5,1.5 4.5,30.5 27.5,30.5 27.5,7.5" stroke="currentColor" stroke-linecap="round" stroke-linejoin="round" stroke-miterlimit="10"/>
        <polyline fill="none" id="XMLID_4072_" points="21.5,1.5 27.479,7.5 21.5,7.5 21.5,4" stroke="currentColor" stroke-linecap="round" stroke-linejoin="round" stroke-miterlimit="10"/>
        <path d="M14.5,18.5c0-0.83,0.67-1.5,1.5-1.5s1.5,0.67,1.5,1.5" fill="none" id="XMLID_4071_" stroke="currentColor" stroke-linecap="round" stroke-linejoin="round" stroke-miterlimit="10"/>
        <g id="XMLID_4068_">
          <path d="M20.75,15.5c0,0.41,0.34,0.75,0.75,0.75s0.75-0.34,0.75-0.75s-0.34-0.75-0.75-0.75S20.75,15.09,20.75,15.5z" fill="none" id="XMLID_4070_" stroke="currentColor" stroke-linecap="round" stroke-linejoin="round" stroke-miterlimit="10"/>
          <path d="M11.25,15.5c0,0.41-0.34,0.75-0.75,0.75s-0.75-0.34-0.75-0.75s0.34-0.75,0.75-0.75S11.25,15.09,11.25,15.5z" fill="none" id="XMLID_4069_" stroke="currentColor" stroke-linecap="round" stroke-linejoin="round" stroke-miterlimit="10"/>
        </g>
      </g>
      <g id="XMLID_2974_">
        <polyline fill="none" id="XMLID_4009_" points="21.5,1.5 4.5,1.5 4.5,30.5 27.5,30.5 27.5,7.5" stroke="currentColor" stroke-linecap="round" stroke-linejoin="round" stroke-miterlimit="10"/>
        <polyline fill="none" id="XMLID_4008_" points="21.5,1.5 27.479,7.5 21.5,7.5 21.5,4" stroke="currentColor" stroke-linecap="round" stroke-linejoin="round" stroke-miterlimit="10"/>
        <path d="M14.5,18.5c0-0.83,0.67-1.5,1.5-1.5s1.5,0.67,1.5,1.5" fill="none" id="XMLID_4007_" stroke="currentColor" stroke-linecap="round" stroke-linejoin="round" stroke-miterlimit="10"/>
        <g id="XMLID_4004_">
          <path d="M20.75,15.5c0,0.41,0.34,0.75,0.75,0.75s0.75-0.34,0.75-0.75s-0.34-0.75-0.75-0.75S20.75,15.09,20.75,15.5z" fill="none" id="XMLID_4006_" stroke="currentColor" stroke-linecap="round" stroke-linejoin="round" stroke-miterlimit="10"/>
          <path d="M11.25,15.5c0,0.41-0.34,0.75-0.75,0.75s-0.75-0.34-0.75-0.75s0.34-0.75,0.75-0.75S11.25,15.09,11.25,15.5z" fill="none" id="XMLID_4005_" stroke="currentColor" stroke-linecap="round" stroke-linejoin="round" stroke-miterlimit="10"/>
        </g>
      </g>
    </g>
  </g>
</symbol>


<!-- pause svg -->
<symbol id="pause" viewBox="0 0 277.338 277.338">
  <g>
    <path fill="currentColor" d="M14.22,45.665v186.013c0,25.223,16.711,45.66,37.327,45.66c20.618,0,37.339-20.438,37.339-45.66V45.665
            c0-25.211-16.721-45.657-37.339-45.657C30.931,0,14.22,20.454,14.22,45.665z"/>
    <path fill="currentColor" d="M225.78,0c-20.614,0-37.325,20.446-37.325,45.657V231.67c0,25.223,16.711,45.652,37.325,45.652s37.338-20.43,37.338-45.652
            V45.665C263.109,20.454,246.394,0,225.78,0z"/>
  </g>
</symbol>


<!-- play svg -->
<symbol id="play" viewBox="0 0 17.804 17.804">
  <g>
    <g id="c98_play">
      <path fill="currentColor" d="M2.067,0.043C2.21-0.028,2.372-0.008,2.493,0.085l13.312,8.503c0.094,0.078,0.154,0.191,0.154,0.313
          c0,0.12-0.061,0.237-0.154,0.314L2.492,17.717c-0.07,0.057-0.162,0.087-0.25,0.087l-0.176-0.04
          c-0.136-0.065-0.222-0.207-0.222-0.361V0.402C1.844,0.25,1.93,0.107,2.067,0.043z"/>
    </g>
    <g id="Capa_1_78_"/>
  </g>
</symbol>


<!-- plus svg -->
<symbol id="plus" viewBox="0 0 35 35">
  <path d="M15 20H0V15H15V0H20V15H35V20H20V35H15V20Z" fill="currentColor"/>
</symbol>


<!-- redact svg -->
<symbol id="redact" viewBox="0 0 38 38">
  <path d="M4.16667 33.3333H7.13542L27.5 12.9687L24.5313 10L4.16667 30.3646V33.3333ZM0 37.5V28.6458L27.5 1.19792C27.9167 0.815972 28.3767 0.520833 28.8802 0.3125C29.3837 0.104167 29.9132 0 30.4687 0C31.0243 0 31.5625 0.104167 32.0833 0.3125C32.6042 0.520833 33.0556 0.833333 33.4375 1.25L36.3021 4.16667C36.7188 4.54861 37.0226 5 37.2135 5.52083C37.4045 6.04167 37.5 6.5625 37.5 7.08333C37.5 7.63889 37.4045 8.1684 37.2135 8.67187C37.0226 9.17535 36.7188 9.63542 36.3021 10.0521L8.85417 37.5H0ZM25.9896 11.5104L24.5313 10L27.5 12.9687L25.9896 11.5104Z" fill="currentColor"/>
</symbol>


<!-- star-circle svg -->
<symbol id="star-circle" viewBox="0 0 580.956 580.956">
  <g>
    <path fill="currentColor" d="M577.7,237.958c-23.256-153-145.655-223.992-291.618-223.686c-3.366,0-5.508,1.53-7.038,3.672
        C200.708-8.984,117.17,61.701,67.904,114.945c-63.954,69.156-82.008,175.95-57.222,264.69
        C55.971,541.51,281.187,608.524,424.089,545.487C537.921,495.61,595.755,356.686,577.7,237.958z M312.398,282.633
        c-7.344,17.137-14.076,34.578-20.502,52.326c-29.07,0.611-58.446,0.611-87.516-0.611c-0.612-3.672-1.224-7.346-1.836-11.018
        c-6.732-39.473-12.852-78.947-17.442-118.727c38.25-25.704,77.418-49.572,117.198-73.134c22.031,14.076,43.758,29.07,64.872,44.982
        C349.118,212.56,327.087,247.75,312.398,282.633z M380.637,186.549c53.244,40.698,104.04,85.68,153.918,128.52
        c-73.44,9.486-148.104,16.83-223.38,19.279c8.874-23.562,18.359-46.819,28.764-69.463
        C352.179,238.875,366.866,212.865,380.637,186.549z M226.718,537.532c-0.306-61.506-8.874-122.094-18.666-182.682
        c25.398,1.223,50.796,1.836,76.194,1.529C263.132,416.049,245.079,477.555,226.718,537.532z M188.468,333.735
        c-49.572-2.447-99.144-7.65-147.798-16.217c40.392-38.25,84.15-71.911,129.438-103.123
        C175.004,254.481,181.736,294.261,188.468,333.735z M182.654,182.265c-2.142-20.502-2.448-41.004-3.06-61.812
        c-0.612-34.272-8.874-55.998,30.294-38.862c26.01,11.628,51.102,24.786,75.582,39.474c-34.578,20.502-69.156,41.616-102.51,63.648
        C182.654,184.102,182.654,183.184,182.654,182.265z M318.519,121.983c27.234-15.912,54.774-31.824,82.008-47.736
        c-2.448,29.988-12.546,58.446-25.704,86.598C356.463,147.075,337.797,134.223,318.519,121.983z M51.687,165.436
        C89.325,96.585,195.201,8.458,278.738,28.042c1.224,2.448,3.672,4.284,7.344,4.284c42.534,0,82.926,6.12,119.34,18.666l0,0
        c-34.578,20.196-69.156,40.086-103.734,60.282c-40.086-24.48-82.008-45.288-125.154-60.894c-5.508-1.836-10.098,3.06-10.404,7.956
        c-3.978,45.9-2.448,91.188,2.142,136.17c-53.244,36.108-104.346,74.97-151.164,120.259C14.966,262.743,27.818,209.5,51.687,165.436
        z M72.495,454.606c-31.824-33.66-48.96-76.807-53.856-122.4c0,0,0.306,0,0.306,0.307c55.08,11.016,113.526,18.359,172.89,21.725
        c10.404,61.506,20.808,122.707,23.868,185.131C160.316,522.844,109.214,493.161,72.495,454.606z M465.704,499.282
        c-60.588,52.02-144.126,63.342-222.768,46.818c19.278-62.73,37.944-127.297,60.282-190.027
        c82.926-2.141,165.546-12.545,241.434-32.129c2.143,1.836,4.284,3.672,6.12,5.201c2.754,2.449,5.814,2.449,8.262,1.531
        C548.324,395.547,515.582,456.442,465.704,499.282z M561.482,316.905c-54.468-48.959-111.996-100.062-173.196-146.268
        c17.137-35.496,30.601-72.522,29.988-111.996c0-1.224-0.306-2.142-0.612-3.06c66.708,26.928,117.504,78.642,138.312,161.874
        C563.931,249.891,565.767,283.551,561.482,316.905z"/>
  </g>
</symbol>


<!-- note svg -->
<symbol id="note" viewBox="0 0 600 600" xmlns="http://www.w3.org/2000/svg">
  <g style="display:inline">
    <path
      d="m301.429 312.422 372.684-76v103.929l-372.684 76z"
      fill="currentColor"
      fill-opacity="1"
      fill-rule="nonzero"
      stroke="none"
      transform="matrix(1.08717 0 0 1.08717 -155.773 -257.032)"
    />
    <path
      d="M301.429 312.342h60v388.5h-60z"
      fill="currentColor"
      fill-opacity="1"
      fill-rule="nonzero"
      stroke="none"
      transform="matrix(1.08717 0 0 1.08717 -155.773 -257.032)"
    />
    <path
      d="M-40 470.362c0 43.078-55.964 78-125 78s-125-34.922-125-78 55.964-78 125-78 125 34.922 125 78"
      fill="currentColor"
      fill-opacity="1"
      fill-rule="nonzero"
      stroke="none"
      transform="matrix(.8401 -.2251 .27056 1.00974 141.385 4.257)"
    />
    <path
      d="M614.113 248.877h60v388.5h-60z"
      fill="currentColor"
      fill-opacity="1"
      fill-rule="nonzero"
      stroke="none"
      style="display:inline"
      transform="matrix(1.08717 0 0 1.08717 -155.773 -257.032)"
    />
    <path
      d="M-40 470.362c0 43.078-55.964 78-125 78s-125-34.922-125-78 55.964-78 125-78 125 34.922 125 78"
      fill="currentColor"
      fill-opacity="1"
      fill-rule="nonzero"
      stroke="none"
      style="display:inline"
      transform="matrix(.8401 -.2251 .27056 1.00974 481.327 -64.74)"
    />
  </g>
</symbol>

<!-- select-arrow svg -->
<symbol id="select-arrow" viewBox="0 0 20 13">
  <path d="M10 12.6667L0 2.66666L2.33333 0.333328L10 7.99999L17.6667 0.333328L20 2.66666L10 12.6667Z" fill="currentColor"/>
</symbol>


</svg>